<svg width="64" height="62" viewBox="0 0 64 62" fill="none" xmlns="http://www.w3.org/2000/svg">
<path d="M0.00769997 46.0116C0.00769997 47.1132 0.90614 48.0116 2.0077 48.0116H22.6167C22.355 48.6406 21.9761 49.2225 21.4761 49.7225L13.5972 57.6014C12.816 58.3827 12.816 59.6522 13.5972 60.4295C13.9878 60.8202 14.4956 61.0194 15.0074 61.0194C15.5192 61.0194 16.0269 60.8202 16.4176 60.4295L24.2965 52.5506C26.0465 50.8006 27.0074 48.4803 27.0074 46.0115C27.0074 43.5427 26.0465 41.2224 24.2965 39.4724L16.4176 31.5935C15.6364 30.8123 14.3668 30.8123 13.5895 31.5935C12.8083 32.3748 12.8083 33.6443 13.5895 34.4216L21.4684 42.3005C21.9684 42.8005 22.3473 43.3786 22.609 44.0114H2C0.8984 44.0114 0 44.9099 0 46.0114L0.00769997 46.0116Z" fill="#8E8E8E"/>
<path d="M64.0077 46.0116C64.0077 44.91 63.1093 44.0116 62.0077 44.0116H41.3987C41.6604 43.3827 42.0393 42.8007 42.5393 42.3007L50.4182 34.4218C51.1994 33.6406 51.1994 32.371 50.4182 31.5937C49.6369 30.8125 48.3674 30.8125 47.5901 31.5937L39.7112 39.4726C37.9612 41.2226 37.0003 43.5429 37.0003 46.0117C37.0003 48.4805 37.9612 50.8008 39.7112 52.5508L47.5901 60.4297C47.9807 60.8204 48.4885 61.0196 49.0003 61.0196C49.512 61.0196 50.0198 60.8204 50.4105 60.4297C51.1917 59.6485 51.1917 58.3789 50.4105 57.6016L42.5316 49.7227C42.0316 49.2227 41.6527 48.6446 41.391 48.0118H62C63.1016 48.0118 64 47.1134 64 46.0118L64.0077 46.0116Z" fill="#8E8E8E"/>
<path d="M59.0077 29.0116C60.1093 29.0116 61.0077 28.1132 61.0077 27.0116V6.26164C61.0077 4.82024 60.5975 3.48044 59.8671 2.48044C58.3788 0.44924 55.7577 -0.44146 53.3671 0.24214L47.5585 1.90234C38.328 4.54294 28.5275 4.70314 19.2065 2.37109L10.4682 0.179691C9.98773 0.0586013 9.49945 0 9.019 0C6.8784 0 4.9409 1.1211 3.8198 2.9883C3.30027 3.86721 3.01902 4.9571 3.01902 6.1602V27.0122C3.01902 28.1138 3.91746 29.0122 5.01902 29.0122C6.12062 29.0122 7.01902 28.1138 7.01902 27.0122V6.1602C7.01902 5.69926 7.10886 5.28911 7.24949 5.0391C7.72996 4.23051 8.64009 3.8477 9.49949 4.05863L18.2378 6.23833C28.2261 8.73833 38.7498 8.55863 48.6478 5.72661L54.4564 4.06641C55.2455 3.83594 56.1478 4.15625 56.6361 4.83594C56.8666 5.14453 56.9955 5.66406 56.9955 6.24614V26.9961C56.9955 28.0977 57.8939 28.9961 58.9955 28.9961L59.0077 29.0116Z" fill="#8E8E8E"/>
</svg>
