<svg width="60" height="60" viewBox="0 0 60 60" fill="none" xmlns="http://www.w3.org/2000/svg">
<path d="M47.9998 51H40.1717C39.0701 51 38.1717 51.8984 38.1717 53C38.1717 54.1016 39.0701 55 40.1717 55H47.9998C54.6209 55 59.9998 49.6211 59.9998 43V12C59.9998 5.3789 54.6209 0 47.9998 0H16.9998C10.3787 0 4.99977 5.3789 4.99977 12V20C4.99977 21.1016 5.89821 22 6.99977 22C8.10133 22 8.99977 21.1016 8.99977 20V12C8.99977 7.5898 12.5896 4 16.9998 4H47.9998C52.41 4 55.9998 7.5898 55.9998 12V43C55.9998 47.4102 52.41 51 47.9998 51Z" fill="#8E8E8E"/>
<path d="M6.99977 60H18.9998C22.8592 60 25.9998 56.8594 25.9998 53V41C25.9998 39.8086 25.699 38.6992 25.1795 37.7188L39.8515 22.9888C39.9413 23.3169 39.9999 23.649 39.9999 24.0083V36.8363C39.9999 37.9379 40.8983 38.8363 41.9999 38.8363C43.1015 38.8363 43.9999 37.9379 43.9999 36.8363V24.0083C43.9999 19.5981 40.4101 16.0083 35.9999 16.0083H22.9999C21.8983 16.0083 20.9999 16.9067 20.9999 18.0083C20.9999 19.1099 21.8983 20.0083 22.9999 20.0083H35.9999C36.3593 20.0083 36.6991 20.0669 37.0311 20.1567L22.3711 34.8757C21.3711 34.325 20.2227 34.0047 19 34.0047H7C3.1406 34.0047 0 37.1453 0 41.0047V53.0046C0 56.864 3.1406 60.0046 7 60.0046L6.99977 60ZM3.99977 41C3.99977 39.3516 5.35137 38 6.99977 38H18.9998C20.6482 38 21.9998 39.3516 21.9998 41V53C21.9998 54.6484 20.6482 56 18.9998 56H6.99977C5.35137 56 3.99977 54.6484 3.99977 53V41Z" fill="#8E8E8E"/>
</svg>
