<svg width="49" height="49" viewBox="0 0 49 49" fill="none" xmlns="http://www.w3.org/2000/svg">
<path d="M21.7168 38.9158L20.3801 40.3505L11.76 32.3361L20.3801 24.3236L21.7168 25.7583L15.6918 31.36H48.0082C48.6433 29.1805 49 26.8834 49 24.5C49 10.9701 38.0318 0 24.5 0C14.0826 0 5.20772 6.51308 1.66404 15.68H33.3063L27.2832 10.0822L28.6199 8.64752L37.24 16.6639L28.6199 24.6764L27.2832 23.2417L33.3082 17.64H0.99176C0.35672 19.8195 0 22.1166 0 24.5C0 38.0299 10.9721 49 24.5 49C34.9174 49 43.7942 42.4869 47.336 33.32H15.6957L21.7168 38.9158Z" fill="#131313"/>
</svg>
