<svg width="60" height="61" viewBox="0 0 60 61" fill="none" xmlns="http://www.w3.org/2000/svg">
<path d="M0 44.7576C0 48.2068 1.6992 51.4178 4.5391 53.3474C8.7188 56.1872 17.5781 60.949 30.0001 60.949C42.4221 60.949 51.2811 56.1873 55.4611 53.3474C58.3009 51.4177 60.0002 48.2068 60.0002 44.7576V29.1366C60.0002 25.6874 58.301 22.4764 55.4611 20.5468C53.633 19.2968 50.6994 17.5663 46.8517 16.078C46.4806 7.2968 39.4415 0.297 30.4927 0H29.3208C20.3208 0.28906 13.2428 7.3398 12.9228 16.172C9.19233 17.6408 6.34473 19.3322 4.54393 20.5509C1.70413 22.4806 0.00482941 25.6915 0.00482941 29.1407V44.7617L0 44.7576ZM29.469 3.9956H30.3401C37.3713 4.22607 42.8711 9.8472 42.8711 16.7846C42.8711 22.8627 38.0313 28.3356 34.4922 32.3436L33.6836 33.2655C32.7227 34.3671 31.332 34.9843 29.8828 34.996C28.414 34.996 27.0234 34.3671 26.0625 33.2655L25.2539 32.3436C21.7227 28.3436 16.8828 22.8631 16.8828 16.7926C16.8828 9.8434 22.4023 4.2226 29.4728 3.9916L29.469 3.9956ZM4 29.1366C4 27.0155 5.0391 25.035 6.7891 23.8554C8.2305 22.8749 10.4375 21.5546 13.2891 20.3359C14.5977 26.3047 18.9375 31.2339 22.2579 34.9839L23.0587 35.8941C24.7775 37.855 27.2579 38.9839 29.8868 38.9839C32.4962 38.9839 34.9884 37.855 36.6954 35.8941L37.4962 34.9839C40.836 31.2027 45.1954 26.2534 46.4845 20.2459C49.4454 21.4959 51.715 22.8475 53.1954 23.8553C54.9454 25.0467 55.9845 27.0155 55.9845 29.1365V44.7575C55.9845 46.8786 54.9454 48.8473 53.1954 50.0387C49.3946 52.6168 41.3364 56.9489 29.9844 56.9489C18.6324 56.9489 10.5744 52.6208 6.77336 50.0387C5.02336 48.8473 3.98426 46.8785 3.98426 44.7575V29.1365L4 29.1366Z" fill="#8E8E8E"/>
<path d="M32 16.9956C32 19.6636 28 19.6636 28 16.9956C28 14.3276 32 14.3276 32 16.9956Z" fill="#8E8E8E"/>
</svg>
