<svg width="61" height="60" viewBox="0 0 61 60" fill="none" xmlns="http://www.w3.org/2000/svg">
<path d="M6.22393 57.6461C8.91533 59.4469 12.7044 59.8766 17.9539 60.0055H18.0047C19.0828 60.0055 19.9735 59.1461 20.0047 58.0563C20.036 56.9547 19.1532 56.0368 18.0555 56.0055C12.7743 55.8766 10.075 55.404 8.45391 54.3141C7.35231 53.5836 6.42271 52.6539 5.69221 51.5524C4.60241 49.9235 4.13361 47.2321 4.00081 41.9508C3.96956 40.8492 3.05159 39.9508 1.95001 40.0016C0.848412 40.0329 -0.0304892 40.943 0.000810787 42.0524C0.121901 47.3024 0.559403 51.0915 2.36021 53.7824C3.39141 55.3215 4.68831 56.6222 6.21961 57.6418L6.22393 57.6461Z" fill="#8E8E8E"/>
<path d="M17.9539 0.0051169C12.7039 0.126207 8.91483 0.563707 6.22393 2.36452C4.68483 3.39572 3.38413 4.69262 2.36453 6.22392C0.563731 8.91532 0.134031 12.7044 0.00513093 17.9539C-0.0261191 19.0555 0.856691 19.9734 1.95433 20.0047H2.00511C3.08321 20.0047 3.97391 19.1453 4.00511 18.0555C4.1262 12.7743 4.60667 10.0867 5.69651 8.45392C6.42698 7.35232 7.35671 6.42272 8.45821 5.69222C10.0871 4.60242 12.7785 4.13362 18.0598 4.00082C19.1614 3.96957 20.0403 3.05941 20.009 1.95002C19.9778 0.840617 19.0676 -0.0304823 17.9582 0.000817735L17.9539 0.0051169Z" fill="#8E8E8E"/>
<path d="M57.6459 6.22412C56.6147 4.68502 55.3178 3.38432 53.7865 2.36472C51.0951 0.563918 47.306 0.134218 42.0565 0.0053176C40.9667 -0.0259324 40.037 0.856877 40.0057 1.95452C39.9745 3.05612 40.8573 3.97402 41.9549 4.00532C47.2361 4.12641 49.9354 4.60688 51.5565 5.69672C52.6581 6.42719 53.5877 7.35692 54.3182 8.45842C55.408 10.0873 55.8768 12.7787 56.0096 18.06C56.0409 19.1498 56.9315 20.0092 58.0096 20.0092H58.0604C59.162 19.978 60.0409 19.0678 60.0096 17.9584C59.8885 12.7084 59.451 8.91932 57.6502 6.22842L57.6459 6.22412Z" fill="#8E8E8E"/>
<path d="M60.0049 42.0561C60.0362 40.9545 59.1534 40.0366 58.0557 40.0053C56.9463 39.9545 56.0362 40.8569 56.0049 41.9545C55.8838 47.2357 55.4034 49.9233 54.3135 51.5561C53.5831 52.6577 52.6533 53.5873 51.5518 54.3178C49.9229 55.4076 47.2315 55.8764 41.9502 56.0092C40.8486 56.0405 39.9697 56.9506 40.001 58.06C40.0323 59.1498 40.9229 60.0092 42.001 60.0092H42.0518C47.3018 59.8881 51.0909 59.4506 53.7818 57.6498C55.3209 56.6186 56.6216 55.3217 57.6412 53.7904C59.442 51.099 59.8717 47.3099 60.0006 42.0604L60.0049 42.0561Z" fill="#8E8E8E"/>
<path d="M30.0049 39.0051C25.1768 39.0051 22.5361 36.0832 21.626 34.8254C20.9776 33.9348 19.7276 33.7356 18.8369 34.384C17.9463 35.0325 17.7471 36.2824 18.3955 37.1731C19.665 38.9231 23.3447 42.9934 30.0165 42.9934C36.6883 42.9934 40.3565 38.9231 41.6375 37.1731C42.286 36.2825 42.0867 35.0325 41.1961 34.384C40.3055 33.7356 39.0555 33.9348 38.407 34.8254C37.4969 36.0871 34.8484 39.0051 30.0281 39.0051H30.0049Z" fill="#8E8E8E"/>
<path d="M22.0049 23.0051C22.0049 25.6731 18.0049 25.6731 18.0049 23.0051C18.0049 20.3371 22.0049 20.3371 22.0049 23.0051Z" fill="#8E8E8E"/>
<path d="M42.0049 23.0051C42.0049 25.6731 38.0049 25.6731 38.0049 23.0051C38.0049 20.3371 42.0049 20.3371 42.0049 23.0051Z" fill="#8E8E8E"/>
</svg>
