<svg width="60" height="58" viewBox="0 0 60 58" fill="none" xmlns="http://www.w3.org/2000/svg">
<path d="M49.938 54H44.938C43.8364 54 42.938 54.8984 42.938 56C42.938 57.1016 43.8364 58 44.938 58H49.938C55.4497 58 59.938 53.5117 59.938 48V10C59.938 4.4883 55.4497 0 49.938 0H21.938C16.4263 0 11.938 4.4883 11.938 10V20C11.938 21.1016 12.8364 22 13.938 22C15.0396 22 15.938 21.1016 15.938 20V10C15.938 6.6914 18.6294 4 21.938 4H49.938C53.2466 4 55.938 6.6914 55.938 10V48C55.938 51.3086 53.2466 54 49.938 54Z" fill="#8E8E8E"/>
<path d="M10 31H7.5C3.3594 31 0 34.3594 0 38.5V50.5C0 54.6406 3.3594 58 7.5 58H10C11.1016 58 12 57.1016 12 56C12 54.8984 11.1016 54 10 54H7.5C5.5703 54 4 52.4297 4 50.5V38.5C4 36.5703 5.5703 35 7.5 35H10C11.1016 35 12 34.1016 12 33C12 31.8984 11.1016 31 10 31Z" fill="#8E8E8E"/>
<path d="M26.438 54H23.938C22.8364 54 21.938 54.8984 21.938 56C21.938 57.1016 22.8364 58 23.938 58H26.438C30.5786 58 33.938 54.6406 33.938 50.5V38.5C33.938 34.3594 30.5786 31 26.438 31H23.938C22.8364 31 21.938 31.8984 21.938 33C21.938 34.1016 22.8364 35 23.938 35H26.438C28.3677 35 29.938 36.5703 29.938 38.5V50.5C29.938 52.4297 28.3677 54 26.438 54Z" fill="#8E8E8E"/>
</svg>
