<svg width="58" height="61" viewBox="0 0 58 61" fill="none" xmlns="http://www.w3.org/2000/svg">
<path d="M0.800781 57.0196C0.281251 56.1407 0 55.0508 0 53.8477V32.9957C0 31.8941 0.89844 30.9957 2 30.9957C3.10156 30.9957 4 31.8942 4 32.9957V53.8477C4 54.3087 4.08984 54.7188 4.23047 54.9688C4.71094 55.7774 5.62107 56.1602 6.48047 55.9493L15.2188 53.7696C25.2071 51.2696 35.7308 51.4493 45.6288 54.2813L51.4374 55.9415C52.2186 56.172 53.1171 55.8517 53.6171 55.172C53.8475 54.8634 53.9764 54.3439 53.9764 53.7618V33.0118C53.9764 31.9102 54.8749 31.0118 55.9764 31.0118C57.078 31.0118 57.9764 31.9102 57.9764 33.0118V53.7618C57.9764 55.2032 57.5663 56.543 56.8358 57.543C55.3475 59.5625 52.7264 60.4649 50.3358 59.7813L44.5272 58.1211C35.2967 55.4805 25.4882 55.3203 16.1752 57.6523L7.43694 59.8437C6.95647 59.9648 6.46819 60.0234 5.98774 60.0234C3.84714 60.0234 1.90964 58.9023 0.78854 57.0351L0.800781 57.0196Z" fill="#8E8E8E"/>
<path d="M47.4608 11.2966L39.5819 3.41774C38.8006 2.63649 38.8006 1.36694 39.5819 0.589638C39.9725 0.199018 40.4803 -0.000205994 40.9921 -0.000205994C41.5038 -0.000205994 42.0116 0.199018 42.4023 0.589638L50.2812 8.46854C52.0312 10.2185 52.9921 12.5388 52.9921 15.0076C52.9921 17.4764 52.0311 19.7967 50.2812 21.5467L42.4023 29.4256C41.621 30.2069 40.3515 30.2069 39.5742 29.4256C38.7929 28.6444 38.7929 27.3748 39.5742 26.5975L47.4531 18.7186C47.9531 18.2186 48.332 17.6405 48.5937 17.0077H9.39068C9.6524 17.6366 10.0313 18.2186 10.5313 18.7186L18.4102 26.5975C19.1914 27.3788 19.1914 28.6483 18.4102 29.4256C17.6289 30.2069 16.3594 30.2069 15.5821 29.4256L7.70318 21.5467C5.95318 19.7967 4.99228 17.4764 4.99228 15.0076C4.99228 12.5388 5.95322 10.2185 7.70318 8.46854L15.5821 0.589638C15.9727 0.199018 16.4805 -0.000205994 16.9923 -0.000205994C17.504 -0.000205994 18.0118 0.199018 18.4025 0.589638C19.1837 1.37089 19.1837 2.64044 18.4025 3.41774L10.5236 11.2966C10.0236 11.7966 9.64467 12.3747 9.38298 13.0075H48.594C48.3323 12.3786 47.9534 11.7966 47.4534 11.2966H47.4608Z" fill="#8E8E8E"/>
</svg>
