<svg width="19" height="16" viewBox="0 0 19 16" fill="none" xmlns="http://www.w3.org/2000/svg">
<path d="M0.118214 15.5751C0.0840131 15.6099 0.0607317 15.6542 0.051307 15.7025C0.0418822 15.7507 0.0467364 15.8007 0.065257 15.8462C0.0837777 15.8917 0.115135 15.9305 0.155374 15.9579C0.195612 15.9853 0.242929 15.9999 0.291355 16H4.31803C4.38297 15.9997 4.44519 15.9734 4.49117 15.9268L9.53524 10.8042C9.69176 10.649 9.81648 10.4639 9.90221 10.2595C9.98794 10.0552 10.033 9.83557 10.0347 9.61342C10.0367 9.3892 9.99271 9.16703 9.90567 8.96097C9.81863 8.75492 9.6904 8.56948 9.52911 8.41642L5.5576 3.65333L4.48504 2.42831C4.46259 2.40237 4.43504 2.38149 4.40417 2.36701C4.37329 2.35253 4.33977 2.34478 4.30577 2.34426L2.77355 2.31935H0.243856C0.196758 2.31961 0.150728 2.33364 0.111273 2.35977C0.0718178 2.3859 0.0406068 2.42302 0.0213732 2.4667C0.0021396 2.51037 -0.00430244 2.55875 0.00281758 2.60605C0.0099376 2.65335 0.0303183 2.69756 0.061522 2.7334L5.83493 9.43908C5.87532 9.48692 5.89636 9.54853 5.8938 9.6115C5.89124 9.67448 5.86527 9.73412 5.82114 9.77841L0.118214 15.5751Z" fill="#131313"/>
<path d="M16.9972 11.0517L13.1666 6.56722C13.1252 6.51987 13.1031 6.45826 13.1048 6.39492C13.1065 6.33159 13.1319 6.2713 13.1758 6.22633L18.8818 0.429684C18.9177 0.395041 18.9425 0.350154 18.9528 0.300938C18.9631 0.251721 18.9585 0.200483 18.9396 0.153973C18.9207 0.107463 18.8884 0.0678637 18.8469 0.0403911C18.8054 0.0129185 18.7566 -0.00113842 18.7071 7.20998e-05H14.6804C14.6483 4.29766e-05 14.6164 0.00649323 14.5867 0.0190502C14.5569 0.0316072 14.53 0.0500219 14.5073 0.0732306L9.46323 5.19588C9.30726 5.35049 9.18285 5.53484 9.09713 5.73837C9.01142 5.94191 8.96608 6.16062 8.96372 6.38199C8.96143 6.60626 9.00522 6.82855 9.09228 7.03466C9.17934 7.24076 9.30777 7.42616 9.46936 7.57899L13.4409 12.3421L14.5134 13.5671C14.5359 13.593 14.5634 13.6139 14.5943 13.6284C14.6252 13.6429 14.6587 13.6506 14.6927 13.6511L16.2249 13.676H18.7561C18.8032 13.6758 18.8493 13.6618 18.8887 13.6356C18.9282 13.6095 18.9594 13.5724 18.9786 13.5287C18.9979 13.485 19.0043 13.4367 18.9972 13.3894C18.9901 13.3421 18.9697 13.2978 18.9385 13.262L16.9972 11.0517Z" fill="#131313"/>
</svg>
