<svg width="145" height="25" viewBox="0 0 145 25" fill="none" xmlns="http://www.w3.org/2000/svg">
<path d="M31.5331 0.814908C31.8021 1.07226 32.0147 1.38071 32.1579 1.72138C32.3011 2.06205 32.3719 2.42778 32.3659 2.7962C32.3714 3.16685 32.3004 3.53476 32.1573 3.87788C32.0142 4.22099 31.8019 4.53224 31.5331 4.79296C31.2737 5.06127 30.9603 5.27378 30.6128 5.41701C30.2652 5.56023 29.891 5.63105 29.514 5.62495C29.1345 5.63088 28.7577 5.56007 28.4073 5.41692C28.0568 5.27378 27.7402 5.06137 27.4773 4.79296C27.2041 4.53465 26.9879 4.22419 26.8419 3.88076C26.696 3.53733 26.6234 3.16821 26.6286 2.7962C26.6226 2.42636 26.6949 2.05933 26.841 1.7183C26.9871 1.37727 27.2037 1.06966 27.4773 0.814908C27.7434 0.55175 28.0609 0.343962 28.4109 0.203993C28.7609 0.0640241 29.1361 -0.00524488 29.514 0.000336052C29.8894 -0.00546022 30.262 0.063779 30.6091 0.203829C30.9562 0.343878 31.2706 0.551801 31.5331 0.814908Z" fill="#131313"/>
<path d="M20.4156 7.48821V6.92323C20.4156 6.14929 20.6478 5.54433 21.1123 5.10834C21.362 4.88654 21.6539 4.71514 21.9712 4.60392C22.2885 4.49271 22.625 4.44386 22.9616 4.46017H23.8438C24.3214 4.46017 24.4083 4.46017 24.728 4.46017V0.000336052H22.2471C21.1873 0.000336052 20.2459 0.255736 19.0163 0.938739C18.0676 1.50103 17.2905 2.30294 16.7663 3.26056C16.2184 4.27196 15.9465 5.40501 15.9769 6.54981V7.48821H12.8802V11.2225H15.969V24.4685H20.4156V11.2225H27.274V24.4685H31.7206V7.48821H20.4156Z" fill="#131313"/>
<path d="M38.6678 0.633032H34.2212V24.4607H38.6678V0.633032Z" fill="#131313"/>
<path d="M57.4706 11.2321C56.828 9.95012 55.8274 8.87325 54.5851 8.12671C53.3181 7.35277 51.7569 6.9658 49.9017 6.9658C48.283 6.9377 46.6909 7.37127 45.3189 8.21378C43.9943 9.03368 42.9068 10.1737 42.1611 11.5243C41.3918 12.9008 40.995 14.4475 41.0085 16.017C40.9782 17.633 41.3818 19.2284 42.1789 20.6433C42.9378 21.9756 44.0527 23.0799 45.4038 23.8377C46.8262 24.626 48.4378 25.0268 50.0714 24.9986C51.9938 24.9986 53.6121 24.5936 54.9266 23.7835C56.2544 22.9577 57.3507 21.8197 58.116 20.473L54.518 18.7432C54.1015 19.4399 53.5191 20.0274 52.8207 20.4556C52.097 20.9122 51.203 21.1399 50.1385 21.1386C49.276 21.1452 48.4269 20.9283 47.6774 20.5098C46.9308 20.0873 46.3238 19.4634 45.9288 18.7123C45.6453 18.1758 45.4565 17.5962 45.3702 16.998H58.3548C58.3765 16.8877 58.4002 16.7039 58.4219 16.4485C58.4436 16.1931 58.4554 15.8893 58.4554 15.5333C58.4736 14.0439 58.1363 12.571 57.4706 11.2321ZM45.5459 13.9119C45.6331 13.6075 45.7501 13.312 45.8952 13.0296C46.2732 12.2748 46.8547 11.6358 47.5768 11.1818C48.2834 10.739 49.1065 10.5077 49.9451 10.5163C50.5407 10.5077 51.1319 10.6162 51.6839 10.8355C52.1654 11.0285 52.6079 11.3044 52.9904 11.6501C53.3379 11.9639 53.6253 12.3361 53.8391 12.7491C54.0317 13.1093 54.1473 13.5044 54.1786 13.91L45.5459 13.9119Z" fill="#131313"/>
<path d="M89.1415 6.98902C88.4228 6.98341 87.7091 7.10669 87.0356 7.35277C86.4107 7.58034 85.831 7.91295 85.3225 8.33567C84.846 8.73205 84.4485 9.21162 84.1502 9.75005H83.8778V7.48821H79.7036V24.4607H84.1502V16.0074C84.1356 15.143 84.3092 14.2855 84.6594 13.4921C84.9736 12.7796 85.4859 12.1681 86.1376 11.7275C86.815 11.285 87.6153 11.0586 88.429 11.0793C88.9271 11.0763 89.4235 11.1374 89.9053 11.2612C90.3691 11.3831 90.8388 11.534 91.3145 11.7101V7.35277C91.0076 7.23251 90.6888 7.14368 90.3632 7.0877C89.96 7.01753 89.551 6.98449 89.1415 6.98902Z" fill="#131313"/>
<path d="M105.537 16.1409C105.548 16.9769 105.38 17.806 105.045 18.5749C104.744 19.2692 104.257 19.8708 103.636 20.3163C102.979 20.7616 102.194 20.9888 101.396 20.9644C100.974 20.9754 100.554 20.8929 100.169 20.723C99.7843 20.5532 99.4432 20.3004 99.1715 19.9835C98.5952 19.3295 98.3071 18.4266 98.3071 17.2747V7.48821H93.8585V17.801C93.8585 20.0196 94.3907 21.7726 95.4552 23.0599C96.5196 24.3472 98.115 24.9922 100.241 24.9947C100.973 25.0009 101.702 24.8885 102.396 24.6619C103.048 24.4486 103.661 24.1345 104.212 23.7313C104.738 23.3497 105.188 22.8753 105.537 22.3324H105.809V24.4607H109.983V7.48821H105.537V16.1409Z" fill="#131313"/>
<path d="M121.801 14.3434L119.255 13.7378C118.674 13.6071 118.122 13.3723 117.627 13.0451C117.176 12.7355 116.949 12.3698 116.948 11.948C116.948 11.5475 117.175 11.2051 117.627 10.9168C118.079 10.6285 118.691 10.4834 119.461 10.4834C120.099 10.48 120.731 10.6162 121.31 10.8819C121.924 11.1835 122.419 11.6752 122.719 12.2808L126.52 10.642C126.143 9.83768 125.586 9.12684 124.89 8.56205C124.178 8.00414 123.358 7.59284 122.48 7.35277C121.463 7.07977 120.411 6.94949 119.356 6.9658C118.187 6.95156 117.028 7.16668 115.945 7.5985C114.988 7.96706 114.145 8.57469 113.5 9.36115C112.899 10.1217 112.582 11.0615 112.602 12.0235C112.586 12.8774 112.827 13.7169 113.297 14.4363C113.763 15.1417 114.383 15.7365 115.113 16.1776C115.841 16.6243 116.642 16.945 117.481 17.1257L119.518 17.5572C119.989 17.6458 120.454 17.7628 120.911 17.9074C121.326 18.0326 121.713 18.2364 122.048 18.5072C122.2 18.6362 122.321 18.7974 122.4 18.9788C122.479 19.1602 122.516 19.3568 122.506 19.5539C122.522 19.8329 122.445 20.1095 122.285 20.3412C122.126 20.5729 121.894 20.747 121.624 20.8367C120.995 21.0763 120.325 21.1946 119.65 21.185C118.836 21.2036 118.035 20.9899 117.343 20.5697C116.655 20.1246 116.113 19.4953 115.78 18.7568L111.809 20.4536C112.145 21.2893 112.647 22.0515 113.285 22.6961C114.006 23.4278 114.882 23.9958 115.851 24.3601C116.903 24.7819 118.176 24.9928 119.67 24.9928C120.937 25.01 122.195 24.7785 123.37 24.3117C124.411 23.9059 125.325 23.2386 126.019 22.3769C126.674 21.5472 127.022 20.5238 127.006 19.4746C127.015 18.8838 126.905 18.297 126.68 17.7486C126.456 17.2001 126.122 16.7009 125.699 16.2802C124.82 15.3876 123.521 14.742 121.801 14.3434Z" fill="#131313"/>
<path d="M144.271 10.2163C143.814 9.20862 143.048 8.36536 142.08 7.80359C141.108 7.23861 139.909 6.95612 138.482 6.95612C137.399 6.94434 136.33 7.20196 135.376 7.70491C134.499 8.14755 133.755 8.80721 133.219 9.61848H132.946L133.219 6.65622V0.633032H128.77V24.4607H133.219V15.841C133.208 15.005 133.382 14.1767 133.728 13.4127C134.038 12.7191 134.529 12.1183 135.153 11.6714C135.765 11.2377 136.504 11.0096 137.259 11.0212C137.854 11.0057 138.444 11.1417 138.97 11.416C139.459 11.6822 139.861 12.0804 140.126 12.5633C140.428 13.1447 140.575 13.792 140.551 14.444V24.4607H144.997V13.9119C145.029 12.6432 144.781 11.3829 144.271 10.2163Z" fill="#131313"/>
<path d="M63.7665 15.3708C63.7641 14.7669 63.993 14.1841 64.4079 13.7378L65.4401 12.7317V0.633032H60.9935V24.4607H65.4401V18.2344L64.4178 17.0057C63.9896 16.5661 63.7555 15.9786 63.7665 15.3708Z" fill="#131313"/>
<path d="M74.9017 21.2179L69.9677 15.6436C69.9151 15.5846 69.8873 15.5083 69.8899 15.43C69.8924 15.3518 69.9252 15.2774 69.9815 15.2218L77.3293 8.02223C77.3734 7.97894 77.4034 7.92382 77.4155 7.86384C77.4276 7.80386 77.4214 7.74169 77.3975 7.68519C77.3737 7.62869 77.3333 7.58038 77.2814 7.54635C77.2296 7.51233 77.1687 7.49412 77.1063 7.49401H71.9176C71.834 7.49436 71.7538 7.52704 71.6946 7.58495L65.1974 13.9467C64.996 14.1397 64.8357 14.3699 64.7256 14.6239C64.6155 14.878 64.5578 15.1509 64.5559 15.4269C64.553 15.7057 64.6094 15.982 64.7215 16.2382C64.8337 16.4944 64.9991 16.7248 65.2072 16.9148L70.3209 22.8316L71.7025 24.3543C71.7316 24.3864 71.7671 24.4122 71.8068 24.4302C71.8465 24.4482 71.8896 24.4579 71.9334 24.4588L73.907 24.4897H77.1675C77.2283 24.4898 77.2879 24.4726 77.339 24.4403C77.3901 24.408 77.4306 24.3618 77.4556 24.3075C77.4806 24.2531 77.4891 24.1928 77.48 24.1338C77.4709 24.0749 77.4446 24.0197 77.4043 23.9751L74.9017 21.2179Z" fill="#131313"/>
<path d="M0.15227 23.9654C0.108216 24.0087 0.0782278 24.0638 0.0660879 24.1238C0.053948 24.1838 0.0602006 24.2459 0.0840568 24.3024C0.107913 24.3589 0.148304 24.4072 0.200135 24.4413C0.251966 24.4753 0.312914 24.4935 0.375291 24.4936H5.56201C5.64566 24.4933 5.72579 24.4606 5.78503 24.4027L12.2822 18.0351C12.4838 17.8422 12.6445 17.6121 12.7549 17.3581C12.8654 17.104 12.9234 16.8311 12.9256 16.5549C12.9281 16.2762 12.8715 16 12.7594 15.7439C12.6473 15.4878 12.4821 15.2573 12.2743 15.067L7.15868 9.14638L5.77713 7.62365C5.74821 7.5914 5.71272 7.56544 5.67295 7.54745C5.63319 7.52945 5.59001 7.51982 5.54622 7.51917L3.57258 7.48821H0.314108C0.253442 7.48852 0.194152 7.50596 0.14333 7.53844C0.0925076 7.57093 0.0523052 7.61707 0.0275306 7.67136C0.00275599 7.72565 -0.00554193 7.78579 0.00362929 7.84458C0.0128005 7.90337 0.0390526 7.95833 0.0792458 8.00288L7.5159 16.3382C7.56793 16.3977 7.59503 16.4743 7.59173 16.5525C7.58844 16.6308 7.55499 16.705 7.49814 16.76L0.15227 23.9654Z" fill="#131313"/>
</svg>
